<svg xmlns="http://www.w3.org/2000/svg" version="1.1" xmlns:xlink="http://www.w3.org/1999/xlink" xmlns:svgjs="http://svgjs.dev/svgjs" width="2000" height="1999" viewBox="0 0 2000 1999"><g transform="matrix(1,0,0,1,-0.431486880466764,-0.4312711370263287)"><svg viewBox="0 0 343 343" data-background-color="#ffffff" preserveAspectRatio="xMidYMid meet" height="1999" width="2000" xmlns="http://www.w3.org/2000/svg" xmlns:xlink="http://www.w3.org/1999/xlink"><g id="tight-bounds" transform="matrix(1,0,0,1,0.0740000000000407,0.07400000000001228)"><svg viewBox="0 0 342.85155851775386 342.85155851775386" height="342.85155851775386" width="342.85155851775386"><g><svg></svg></g><g><svg viewBox="0 0 342.85155851775386 342.85155851775386" height="342.85155851775386" width="342.85155851775386"><g><path d="M0 171.426c0-94.676 76.75-171.426 171.426-171.426 94.676 0 171.426 76.75 171.426 171.426 0 94.676-76.75 171.426-171.426 171.426-94.676 0-171.426-76.75-171.426-171.426zM171.426 338.561c92.306 0 167.135-74.829 167.135-167.135 0-92.306-74.829-167.135-167.135-167.135-92.306 0-167.135 74.829-167.135 167.135 0 92.306 74.829 167.135 167.135 167.135z" data-fill-palette-color="tertiary" fill="#000000" stroke="transparent"></path><ellipse rx="164.56874808852186" ry="164.56874808852186" cx="171.42577925887693" cy="171.42577925887693" fill="#000000" stroke="transparent" stroke-width="0" fill-opacity="1" data-fill-palette-color="tertiary"></ellipse></g><g transform="matrix(1,0,0,1,64.84655864529837,80.23349820718632)"><svg viewBox="0 0 213.1584412271571 182.38456210338123" height="182.38456210338123" width="213.1584412271571"><g><svg viewBox="0 0 213.1584412271571 182.38456210338123" height="182.38456210338123" width="213.1584412271571"><g><svg viewBox="0 0 213.15844122715714 182.38456210338126" height="182.38456210338123" width="213.1584412271571"><g transform="matrix(1,0,0,1,0,110.53256859367676)"><svg viewBox="0 0 213.15844122715714 71.8519935097045" height="71.8519935097045" width="213.15844122715714"><g id="textblocktransform"><svg viewBox="0 0 213.15844122715714 71.8519935097045" height="71.8519935097045" width="213.15844122715714" id="textblock"><g><svg viewBox="0 0 213.15844122715714 47.58261561219749" height="47.58261561219749" width="213.15844122715714"><g transform="matrix(1,0,0,1,0,0)"><svg width="213.15844122715714" viewBox="-0.85 -31.25 182.53 40.75" height="47.58261561219749" data-palette-color="url(#608b4532-b11b-4832-ae1d-d440d1b85262)"></svg></g></svg></g><g transform="matrix(1,0,0,1,0,58.81572917546263)"><svg viewBox="0 0 213.15844122715714 13.036264334241865" height="13.036264334241865" width="213.15844122715714"><g transform="matrix(1,0,0,1,0,0)"><svg width="213.15844122715714" viewBox="2.4399999999999995 -31.74 670.5799999999999 41.019999999999996" height="13.036264334241865" data-palette-color="url(#608b4532-b11b-4832-ae1d-d440d1b85262)"></svg></g></svg></g></svg></g></svg></g><g transform="matrix(1,0,0,1,56.93327484457256,0)"><svg viewBox="0 0 99.29189153801202 99.29945503041162" height="99.29945503041162" width="99.29189153801202"><g><svg xmlns="http://www.w3.org/2000/svg" xmlns:xlink="http://www.w3.org/1999/xlink" version="1.1" x="0" y="0" viewBox="4.357976870074491 4.355 91.28404649975732 91.291" enable-background="new 0 0 100 100" xml:space="preserve" height="99.29945503041162" width="99.29189153801202" class="icon-icon-0" data-fill-palette-color="quaternary" id="icon-0"></svg></g></svg></g><g></g></svg></g></svg></g></svg></g></svg></g><defs></defs><mask id="69a0435e-f930-4d9c-9a2a-0fac42b4fd95"><g id="SvgjsG7196"><svg viewBox="0 0 342.85155851775386 342.85155851775386" height="342.85155851775386" width="342.85155851775386"><g><svg></svg></g><g><svg viewBox="0 0 342.85155851775386 342.85155851775386" height="342.85155851775386" width="342.85155851775386"><g><path d="M0 171.426c0-94.676 76.75-171.426 171.426-171.426 94.676 0 171.426 76.75 171.426 171.426 0 94.676-76.75 171.426-171.426 171.426-94.676 0-171.426-76.75-171.426-171.426zM171.426 338.561c92.306 0 167.135-74.829 167.135-167.135 0-92.306-74.829-167.135-167.135-167.135-92.306 0-167.135 74.829-167.135 167.135 0 92.306 74.829 167.135 167.135 167.135z" fill="black" stroke="transparent"></path><ellipse rx="164.56874808852186" ry="164.56874808852186" cx="171.42577925887693" cy="171.42577925887693" fill="black" stroke="transparent" stroke-width="0" fill-opacity="1"></ellipse></g><g transform="matrix(1,0,0,1,64.84655864529837,80.23349820718632)"><svg viewBox="0 0 213.1584412271571 182.38456210338123" height="182.38456210338123" width="213.1584412271571"><g><svg viewBox="0 0 213.1584412271571 182.38456210338123" height="182.38456210338123" width="213.1584412271571"><g><svg viewBox="0 0 213.15844122715714 182.38456210338126" height="182.38456210338123" width="213.1584412271571"><g transform="matrix(1,0,0,1,0,110.53256859367676)"><svg viewBox="0 0 213.15844122715714 71.8519935097045" height="71.8519935097045" width="213.15844122715714"><g id="SvgjsG7195"><svg viewBox="0 0 213.15844122715714 71.8519935097045" height="71.8519935097045" width="213.15844122715714" id="SvgjsSvg7194"><g><svg viewBox="0 0 213.15844122715714 47.58261561219749" height="47.58261561219749" width="213.15844122715714"><g transform="matrix(1,0,0,1,0,0)"><svg width="213.15844122715714" viewBox="-0.85 -31.25 182.53 40.75" height="47.58261561219749" data-palette-color="url(#608b4532-b11b-4832-ae1d-d440d1b85262)"><path d="M39.55-21.4L39.55-21.4Q37.7-20.65 36.38-20.65 35.05-20.65 35.05-21.2L35.05-21.2Q35.05-21.55 36.52-21.6 38-21.65 38.65-21.95L38.65-21.95Q40.55-22.95 40.55-24.9L40.55-24.9Q40.55-25.9 40-27L40-27Q38.4-29.85 32.25-29.85L32.25-29.85Q28.7-29.85 25.15-28.78 21.6-27.7 19.2-25.48 16.8-23.25 16.8-21.35L16.8-21.35Q16.8-18.45 22.55-17.1L22.55-17.1 28.45-16Q32-15.35 33.75-14.2L33.75-14.2Q36.05-12.8 36.05-10.2L36.05-10.2Q36.05-9.15 35.7-7.95L35.7-7.95Q34.1-2.55 27.45 0.3L27.45 0.3Q21.9 2.75 14.35 2.75L14.35 2.75Q12.2 2.75 10.6 2.55L10.6 2.55Q12.2 3.45 14.8 4.1L14.8 4.1Q15 4.15 15 4.3L15 4.3Q15 4.75 13.95 4.75L13.95 4.75Q11.9 4.75 8.85 2.3L8.85 2.3Q4.7 1.65 2.65 0L2.65 0Q1.35-1.05 0.25-3.1-0.85-5.15-0.85-6.8-0.85-8.45-0.2-9.55L-0.2-9.55Q1.3-12.2 3.6-12.2L3.6-12.2Q5.35-12.2 5.65-9.25L5.65-9.25Q6.35-3.55 6.6-2.75L6.6-2.75Q7.35-0.3 9.15 1.4L9.15 1.4Q11.25 1.85 13.7 1.85L13.7 1.85Q19.1 1.85 24.3-0.3 29.5-2.45 31.8-6.4L31.8-6.4Q32.75-7.95 32.75-9.15L32.75-9.15Q32.75-11.5 28.6-12.8L28.6-12.8 19.8-14.8Q17.1-15.45 15.48-16.95 13.85-18.45 13.85-20.4L13.85-20.4Q13.85-23.4 17.6-26.4L17.6-26.4Q20.45-28.7 24.58-29.98 28.7-31.25 32.68-31.25 36.65-31.25 39.25-30.1L39.25-30.1Q42.6-28.55 42.6-25.58 42.6-22.6 39.55-21.4ZM7.35 0.9L7.35 0.9Q4.45-2.3 3.65-7.85L3.65-7.85Q3.2-11 2.8-11 2.4-11 2.05-10.78 1.7-10.55 1.35-9.8 1-9.05 1-7.85L1-7.85Q1-4 3.7-1.25L3.7-1.25Q5.05 0.15 7.35 0.9ZM50.45-10.6L50.45-10.6Q50.45-8.85 47.1-4.75L47.1-4.75Q43.15 0.1 40.35 0.1L40.35 0.1 39.55 0.1Q38.25 0.1 37.5-1.25L37.5-1.25Q36.9-2.2 36.9-3.35L36.9-3.35Q36.9-6.35 41.27-11.78 45.65-17.2 48.35-17.2L48.35-17.2Q50.9-17.2 50.9-14.5L50.9-14.5Q50.9-13.8 50.65-12.7L50.65-12.7Q50.7-12.55 51.6-12.55 52.5-12.55 54.35-13.5L54.35-13.5Q54.3-12.65 50.4-11.05L50.4-11.05Q50.45-10.85 50.45-10.6ZM47.2-13.2L47.2-13.2Q45.5-13.2 42.37-9.2 39.25-5.2 39.25-3.3 39.25-1.4 40.45-1.4L40.45-1.4Q42.6-1.4 45.9-5.3 49.2-9.2 49.2-10.9L49.2-10.9Q48.4-11.35 47.2-13.2ZM53.4-2.5Q53.4-1 55.05-1 56.7-1 59.3-2.75 61.9-4.5 64.35-7.5L64.35-7.5Q64.95-8.3 65.3-8.3 65.65-8.3 65.65-8L65.65-8Q65.65-7.7 63.6-5.4L63.6-5.4Q58.6 0.1 55.25 0.1L55.25 0.1Q53.6 0.1 52.45-0.68 51.3-1.45 51.3-3.08 51.3-4.7 52.15-6.85L52.15-6.85Q53.6-10.25 56.8-15.4L56.8-15.4Q62.65-24.9 65.1-24.9L65.1-24.9Q65.6-24.9 66.12-24.53 66.65-24.15 66.7-23.7L66.7-23.7Q65.55-22.15 62.27-17.75 59-13.35 57.75-11.43 56.5-9.5 55.87-8.55 55.25-7.6 54.95-7.08 54.65-6.55 54.25-5.7L54.25-5.7Q53.4-4 53.4-2.5ZM76.64-10.6L76.64-10.6Q76.64-8.85 73.29-4.75L73.29-4.75Q69.34 0.1 66.54 0.1L66.54 0.1 65.74 0.1Q64.44 0.1 63.69-1.25L63.69-1.25Q63.09-2.2 63.09-3.35L63.09-3.35Q63.09-6.35 67.47-11.78 71.84-17.2 74.54-17.2L74.54-17.2Q77.09-17.2 77.09-14.5L77.09-14.5Q77.09-13.8 76.84-12.7L76.84-12.7Q76.89-12.55 77.79-12.55 78.69-12.55 80.54-13.5L80.54-13.5Q80.49-12.65 76.59-11.05L76.59-11.05Q76.64-10.85 76.64-10.6ZM73.39-13.2L73.39-13.2Q71.69-13.2 68.57-9.2 65.44-5.2 65.44-3.3 65.44-1.4 66.64-1.4L66.64-1.4Q68.79-1.4 72.09-5.3 75.39-9.2 75.39-10.9L75.39-10.9Q74.59-11.35 73.39-13.2ZM88.44-1.8L86.84-0.75Q85.39 0.1 83.27 0.1 81.14 0.1 80.02-1.3 78.89-2.7 78.09-5.75L78.09-5.75Q77.19-4.85 76.84-4.85L76.84-4.85Q76.59-4.85 76.59-5.2 76.59-5.55 76.84-5.8L76.84-5.8Q78.49-7.85 82.44-11.7L82.44-11.7 88.74-17.6Q91.44-20.15 91.94-20.15L91.94-20.15Q93.54-20.15 93.54-18.95L93.54-18.95Q93.54-18.35 93.07-17.78 92.59-17.2 92.37-16.88 92.14-16.55 91.89-16.25L91.89-16.25Q90.99-14.7 90.07-9.85 89.14-5 88.64-3.1L88.64-3.1Q92.79-3.15 97.19-8.5L97.19-8.5Q97.69-9 97.94-9 98.19-9 98.19-8.68 98.19-8.35 97.74-7.8L97.74-7.8Q94.84-4.4 92.34-3.05L92.34-3.05Q90.84-2.3 88.44-1.8L88.44-1.8ZM80.09-6.3L80.09-6.3Q80.09-4.6 81.22-3.53 82.34-2.45 83.74-2.45 85.14-2.45 85.89-3L85.89-3Q86.89-3.55 87.87-7.6 88.84-11.65 89.04-14.75L89.04-14.75 89.24-16.45Q86.49-14.4 83.37-11.15 80.24-7.9 80.14-6.85L80.14-6.85Q80.09-6.55 80.09-6.3ZM114.44-11.3L114.44-11.3Q114.44-7.25 109.81-3.63 105.19 0 101.79 0L101.79 0Q99.54 0 98.51-0.3 97.49-0.6 96.24-2.1L96.24-2.1Q95.39-1.4 93.94 1.48 92.49 4.35 92.49 6.4L92.49 6.4Q92.49 7.35 93.44 8.9L93.44 8.9Q93.54 9.15 93.29 9.33 93.04 9.5 92.91 9.5 92.79 9.5 92.69 9.45L92.69 9.45Q90.59 8.3 90.59 4.98 90.59 1.65 96.11-6.53 101.64-14.7 103.74-15.4L103.74-15.4Q104.24-15.5 104.39-15.5L104.39-15.5Q105.24-15.5 105.24-13.65L105.24-13.65Q105.74-14.15 107.29-14.6L107.29-14.6Q109.19-15.1 109.99-15.1L109.99-15.1Q111.79-15.1 113.11-14.08 114.44-13.05 114.44-11.3ZM111.89-11.8L111.89-11.8Q111.89-13.7 109.64-13.7 107.39-13.7 105.54-12.75L105.54-12.75Q104.69-12.35 100.84-8.35 96.99-4.35 96.99-3.2L96.99-3.2Q96.99-2.3 98.36-1.85 99.74-1.4 101.14-1.4L101.14-1.4Q103.89-1.4 107.89-4.53 111.89-7.65 111.89-11.8ZM126.29-0.2L126.29-0.2Q123.34-0.2 123.34-3.65L123.34-3.65Q123.34-5.6 124.71-7.98 126.09-10.35 128.09-13.55L128.09-13.55Q121.69-10.35 116.49-4.1L116.49-4.1Q113.59 0.25 113.09 0.25L113.09 0.25Q111.64 0.25 111.64-0.6L111.64-0.6Q111.64-1.05 112.24-2.2L112.24-2.2Q117.09-10.85 119.59-14.85L119.59-14.85Q125.54-24.4 127.99-25.2L127.99-25.2Q128.09-25.25 128.19-25.25L128.19-25.25Q128.84-25.25 129.09-24.2L129.09-24.2Q128.94-23.15 123.89-16.6L123.89-16.6Q118.64-9.95 117.94-7.9L117.94-7.9Q119.79-9.25 124.39-12.45L124.39-12.45Q129.34-15.9 130.94-15.9 132.54-15.9 132.54-14.65L132.54-14.65Q132.54-14.45 132.51-14.38 132.49-14.3 129.04-9.65 125.59-5 125.59-2.8L125.59-2.8Q125.59-1.65 126.44-1.65L126.44-1.65Q129.14-1.75 134.54-8.15L134.54-8.15Q134.99-8.6 135.21-8.6 135.44-8.6 135.44-8.3L135.44-8.3Q135.44-7.3 130.49-2.9L130.49-2.9Q127.39-0.2 126.29-0.2ZM135.78 0.65L135.78 0.65Q135.23 0.65 134.78 0.5L134.78 0.5Q131.58-0.4 131.58-3.1L131.58-3.1Q131.58-6.6 135.98-11.2 140.38-15.8 143.88-15.8L143.88-15.8Q145.03-15.8 145.76-15.18 146.48-14.55 146.48-13.65L146.48-13.65Q146.48-10.85 142.26-8.3 138.03-5.75 135.38-5.75L135.38-5.75Q134.98-5.75 134.68-5.85L134.68-5.85Q133.93-4.5 133.93-3L133.93-3Q133.93-0.4 136.41-0.4 138.88-0.4 142.83-3.75L142.83-3.75Q145.88-6.2 148.03-8.95L148.03-8.95Q148.48-9.55 148.81-9.55 149.13-9.55 149.13-9.25 149.13-8.95 148.73-8.4L148.73-8.4Q146.03-4.85 142.23-2.1 138.43 0.65 135.78 0.65ZM145.23-13.75L145.23-13.75Q145.23-14.35 143.96-14.35 142.68-14.35 140.33-12.4L140.33-12.4Q137.18-9.8 135.43-6.95L135.43-6.95Q135.73-6.85 136.08-6.85L136.08-6.85Q137.98-6.85 141.16-8.88 144.33-10.9 145.13-13.3L145.13-13.3Q145.23-13.55 145.23-13.75ZM156.28 0.25L156.28 0.25Q152.53 0.25 152.53-3.9L152.53-3.9Q152.53-6 153.63-8.5 154.73-11 156.03-12.7L156.03-12.7Q155.78-12.65 155.38-12.65L155.38-12.65Q154.18-12.65 153.38-14.35L153.38-14.35 149.68-9.55Q146.58-5.7 146.08-5.7L146.08-5.7Q145.83-5.7 145.83-5.9L145.83-5.9Q145.83-6.4 146.68-7.35L146.68-7.35Q151.03-12.4 152.83-15.9L152.83-15.9Q153.98-20.25 155.73-20.25L155.73-20.25Q156.88-20.25 156.88-19.25 156.88-18.25 155.63-16.7L155.63-16.7 154.43-15.1Q154.43-14.05 155.98-14.05L155.98-14.05Q156.88-14.05 157.98-14.7L157.98-14.7 159.28-15.5Q159.38-15.55 159.78-15.55 160.18-15.55 160.63-15.05 161.08-14.55 160.93-14.15L160.93-14.15 157.48-9.8Q154.28-5.7 154.28-3.33 154.28-0.95 156.48-0.95L156.48-0.95Q158.78-0.95 162.13-3.4L162.13-3.4Q164.13-4.85 165.78-6.65L165.78-6.65Q167.33-8.45 167.48-8.45L167.48-8.45Q167.83-8.45 167.83-8.08 167.83-7.7 167.38-7.2L167.38-7.2 165.78-5.4Q164.43-4 162.78-2.7L162.78-2.7Q158.83 0.25 156.28 0.25ZM168.33 0.65L168.33 0.65Q167.78 0.65 167.33 0.5L167.33 0.5Q164.13-0.4 164.13-3.1L164.13-3.1Q164.13-6.6 168.53-11.2 172.93-15.8 176.43-15.8L176.43-15.8Q177.58-15.8 178.3-15.18 179.03-14.55 179.03-13.65L179.03-13.65Q179.03-10.85 174.8-8.3 170.58-5.75 167.93-5.75L167.93-5.75Q167.53-5.75 167.23-5.85L167.23-5.85Q166.48-4.5 166.48-3L166.48-3Q166.48-0.4 168.95-0.4 171.43-0.4 175.38-3.75L175.38-3.75Q178.43-6.2 180.58-8.95L180.58-8.95Q181.03-9.55 181.35-9.55 181.68-9.55 181.68-9.25 181.68-8.95 181.28-8.4L181.28-8.4Q178.58-4.85 174.78-2.1 170.98 0.65 168.33 0.65ZM177.78-13.75L177.78-13.75Q177.78-14.35 176.5-14.35 175.23-14.35 172.88-12.4L172.88-12.4Q169.73-9.8 167.98-6.95L167.98-6.95Q168.28-6.85 168.63-6.85L168.63-6.85Q170.53-6.85 173.7-8.88 176.88-10.9 177.68-13.3L177.68-13.3Q177.78-13.55 177.78-13.75Z" opacity="1" transform="matrix(1,0,0,1,0,0)" fill="white" class="wordmark-text-0" id="SvgjsPath7193"></path></svg></g></svg></g><g transform="matrix(1,0,0,1,0,58.81572917546263)"><svg viewBox="0 0 213.15844122715714 13.036264334241865" height="13.036264334241865" width="213.15844122715714"><g transform="matrix(1,0,0,1,0,0)"><svg width="213.15844122715714" viewBox="2.4399999999999995 -31.74 670.5799999999999 41.019999999999996" height="13.036264334241865" data-palette-color="url(#608b4532-b11b-4832-ae1d-d440d1b85262)"><path d="M26.76-2.25L26.76-2.25Q26.76-0.2 27.34 0.1L27.34 0.1Q27.69 0.24 28.27 0.24L28.27 0.24 28.27-8.98 27.1-8.98Q24.61-0.93 17.14-0.88L17.14-0.88Q10.79-0.88 8.5-7.28L8.5-7.28Q7.37-10.4 7.37-14.65L7.37-14.65Q7.37-23.78 12.4-27.05L12.4-27.05Q14.6-28.42 17.29-28.42L17.29-28.42Q23.39-28.42 26.12-22.66L26.12-22.66Q26.61-21.63 26.95-20.56L26.95-20.56 28.13-20.56 27.98-29.54Q26.9-29.54 26.66-28.86L26.66-28.86Q26.51-28.27 26.51-26.95L26.51-26.95Q25.1-28.37 21.68-29.25L21.68-29.25Q19.43-29.79 17.09-29.79L17.09-29.79Q9.38-29.79 5.27-24.07L5.27-24.07Q2.44-20.02 2.44-14.75L2.44-14.75Q2.44-8.35 6.4-4L6.4-4Q10.6 0.49 17.33 0.49L17.33 0.49Q22.27 0.44 26.76-2.25ZM36.57-10.4L36.57-10.4Q36.57-17.97 40.72-19.63L40.72-19.63Q41.79-20.02 42.97-20.02L42.97-20.02Q48.39-20.02 49.27-13.18L49.27-13.18Q49.41-12.01 49.41-10.6L49.41-10.6Q49.41-2.39 44.92-0.98L44.92-0.98Q44.04-0.73 43.11-0.73L43.11-0.73Q38.18-0.73 36.91-6.59L36.91-6.59Q36.57-8.3 36.57-10.4ZM43.11-21.24L43.11-21.24Q38.43-21.24 35.3-18.02L35.3-18.02Q32.42-15.04 32.42-10.6L32.42-10.6Q32.42-4.44 36.91-1.37L36.91-1.37Q39.65 0.49 42.97 0.49L42.97 0.49Q47.65 0.49 50.73-2.83L50.73-2.83Q53.56-5.86 53.56-10.4L53.56-10.4Q53.56-16.55 49.02-19.53L49.02-19.53Q46.34-21.24 43.11-21.24ZM66.5-1.22L66.5-1.22 64.3-1.22 64.3-11.77Q64.45-16.31 67.52-18.31L67.52-18.31Q68.84-19.14 70.21-19.14L70.21-19.14Q73.19-19.14 74.26-16.36L74.26-16.36Q74.7-15.23 74.7-13.82L74.7-13.82 74.7-4.15Q74.7-1.9 73.43-1.46L73.43-1.46Q72.7-1.22 71.04-1.22L71.04-1.22 71.04 0 82.03 0Q82.03-1.07 81.29-1.17L81.29-1.17Q81.1-1.22 80.81-1.22L80.81-1.22 78.36-1.22 78.36-13.33Q78.36-18.21 75-20.31L75-20.31Q73.43-21.24 71.63-21.24L71.63-21.24Q68.01-21.24 65.67-18.36L65.67-18.36Q64.79-17.24 64.25-15.87L64.25-15.87 64.06-20.75 56.98-20.75 56.98-19.53 60.64-19.53 60.64-4.15Q60.64-1.9 59.37-1.46L59.37-1.46Q58.64-1.22 56.98-1.22L56.98-1.22 56.98 0 67.72 0Q67.72-1.07 66.99-1.17L66.99-1.17Q66.79-1.22 66.5-1.22ZM94.23-1.22L94.23-1.22 92.03-1.22 92.03-11.77Q92.18-16.31 95.26-18.31L95.26-18.31Q96.57-19.14 97.94-19.14L97.94-19.14Q100.92-19.14 101.99-16.36L101.99-16.36Q102.43-15.23 102.43-13.82L102.43-13.82 102.43-4.15Q102.43-1.9 101.16-1.46L101.16-1.46Q100.43-1.22 98.77-1.22L98.77-1.22 98.77 0 109.76 0Q109.76-1.07 109.03-1.17L109.03-1.17Q108.83-1.22 108.54-1.22L108.54-1.22 106.1-1.22 106.1-13.33Q106.1-18.21 102.73-20.31L102.73-20.31Q101.16-21.24 99.36-21.24L99.36-21.24Q95.74-21.24 93.4-18.36L93.4-18.36Q92.52-17.24 91.98-15.87L91.98-15.87 91.79-20.75 84.71-20.75 84.71-19.53 88.37-19.53 88.37-4.15Q88.37-1.9 87.1-1.46L87.1-1.46Q86.37-1.22 84.71-1.22L84.71-1.22 84.71 0 95.45 0Q95.45-1.07 94.72-1.17L94.72-1.17Q94.52-1.22 94.23-1.22ZM123.13-20.02L123.13-20.02Q126.55-20.02 127.68-17.14L127.68-17.14Q128.07-16.21 128.07-15.14L128.07-15.14Q128.07-12.7 125.72-12.16L125.72-12.16Q124.5-11.91 122.26-11.96L122.26-11.96 117.08-12.11Q117.32-17.72 120.74-19.43L120.74-19.43Q121.87-20.02 123.13-20.02ZM131.63-4.69L131.63-4.69 130.41-5.13Q128.7-1.42 124.89-0.93L124.89-0.93Q124.4-0.88 123.96-0.88L123.96-0.88Q118.84-0.88 117.52-6.98L117.52-6.98Q117.13-8.69 117.08-10.74L117.08-10.74 122.94-10.64Q128.9-10.55 130.61-11.77L130.61-11.77Q131.92-12.74 131.92-14.55L131.92-14.55Q131.92-17.87 128.55-19.82L128.55-19.82Q126.16-21.24 123.04-21.24L123.04-21.24Q116.93-21.24 114.3-16.16L114.3-16.16Q112.93-13.53 112.93-10.21L112.93-10.21Q112.93-4.15 117.28-1.22L117.28-1.22Q119.86 0.49 123.18 0.49L123.18 0.49Q128.46 0.49 130.95-3.32L130.95-3.32Q131.34-4 131.63-4.69ZM135.58-10.16L135.58-10.16Q135.58-4.25 139.93-1.32L139.93-1.32Q142.61 0.49 146.03 0.49L146.03 0.49Q151.11 0.49 153.7-3.08L153.7-3.08Q154.28-3.91 154.63-4.74L154.63-4.74 153.36-5.18Q151.55-1.32 147.4-0.93L147.4-0.93Q147.01-0.88 146.62-0.88L146.62-0.88Q143.15-0.88 141.2-4.35L141.2-4.35Q139.73-6.98 139.73-10.6L139.73-10.6Q139.73-16.99 143.1-19.14L143.1-19.14Q144.52-20.02 146.23-20.02L146.23-20.02Q148.86-20.02 149.4-17.97L149.4-17.97Q149.5-17.58 149.65-16.75L149.65-16.75Q149.94-14.79 150.72-14.31L150.72-14.31Q151.21-14.06 151.79-14.01L151.79-14.01Q153.45-13.92 153.89-15.38L153.89-15.38Q153.99-15.72 153.99-16.02L153.99-16.02Q153.99-18.51 150.82-20.12L150.82-20.12Q148.57-21.24 145.93-21.24L145.93-21.24Q139.39-21.24 136.8-15.92L136.8-15.92Q135.58-13.38 135.58-10.16ZM155.84-20.75L155.84-19.53 159.26-19.53 159.26-5.76Q159.6 0.34 164.88 0.54L164.88 0.54Q169.37 0.54 170.49-4.98L170.49-4.98Q170.49-5.03 170.49-5.08L170.49-5.08 169.17-5.32Q167.95-1.27 165.61-0.93L165.61-0.93Q162.97-1.03 162.92-4.69L162.92-4.69 162.92-19.53 170.49-19.53 170.49-20.75 162.92-20.75 162.92-26.42 159.26-25.39 159.26-20.75 155.84-20.75ZM182.21-1.22L182.21-1.22 179.77-1.22 179.77-20.75 172.2-20.75 172.2-19.53 176.11-19.53 176.11-4.15Q176.11-1.9 174.59-1.42L174.59-1.42Q173.86-1.22 172.2-1.22L172.2-1.22 172.2 0 183.43 0Q183.43-1.07 182.7-1.17L182.7-1.17Q182.45-1.22 182.21-1.22ZM180.35-27.88L180.35-27.88Q180.35-29.59 178.84-30.32L178.84-30.32Q178.25-30.57 177.72-30.57L177.72-30.57Q176.01-30.57 175.28-29L175.28-29Q175.03-28.47 175.03-27.88L175.03-27.88Q175.03-26.07 176.64-25.39L176.64-25.39Q177.18-25.2 177.72-25.2L177.72-25.2Q179.43-25.2 180.11-26.76L180.11-26.76Q180.35-27.29 180.35-27.88ZM195.88-1.22L195.88-1.22 193.68-1.22 193.68-11.77Q193.83-16.31 196.9-18.31L196.9-18.31Q198.22-19.14 199.59-19.14L199.59-19.14Q202.57-19.14 203.64-16.36L203.64-16.36Q204.08-15.23 204.08-13.82L204.08-13.82 204.08-4.15Q204.08-1.9 202.81-1.46L202.81-1.46Q202.08-1.22 200.42-1.22L200.42-1.22 200.42 0 211.41 0Q211.41-1.07 210.67-1.17L210.67-1.17Q210.48-1.22 210.19-1.22L210.19-1.22 207.74-1.22 207.74-13.33Q207.74-18.21 204.37-20.31L204.37-20.31Q202.81-21.24 201.01-21.24L201.01-21.24Q197.39-21.24 195.05-18.36L195.05-18.36Q194.17-17.24 193.63-15.87L193.63-15.87 193.44-20.75 186.36-20.75 186.36-19.53 190.02-19.53 190.02-4.15Q190.02-1.9 188.75-1.46L188.75-1.46Q188.02-1.22 186.36-1.22L186.36-1.22 186.36 0 197.1 0Q197.1-1.07 196.37-1.17L196.37-1.17Q196.17-1.22 195.88-1.22ZM218.97-13.53L218.97-13.53Q219.07-19.97 223.85-20.02L223.85-20.02Q228.64-19.92 228.69-13.53L228.69-13.53Q228.59-6.88 223.85-6.84L223.85-6.84Q219.02-6.93 218.97-13.53ZM223.9-21.24L223.9-21.24Q219.51-21.24 216.92-18.41L216.92-18.41Q215.07-16.31 215.07-13.48L215.07-13.48Q215.07-9.77 218.68-7.32L218.68-7.32Q219.02-7.08 219.36-6.88L219.36-6.88Q216.24-6.88 215.46-4.2L215.46-4.2Q215.31-3.56 215.31-2.93L215.31-2.93Q215.36-0.34 217.41 0.93L217.41 0.93Q215.8 2.64 215.8 4.39L215.8 4.39Q215.8 7.08 218.97 8.4L218.97 8.4Q220.97 9.28 223.9 9.28L223.9 9.28Q231.33 9.28 233.72 5.66L233.72 5.66Q234.5 4.44 234.5 3.08L234.5 3.08Q234.5-1.12 229.67-1.76L229.67-1.76Q229.03-1.86 228.35-1.86L228.35-1.86 219.46-2.05Q217.21-2.2 217.17-4L217.17-4Q217.17-5.27 218.78-5.62L218.78-5.62Q219.12-5.66 219.51-5.66L219.51-5.66 223.81-5.62Q228.15-5.62 230.74-8.54L230.74-8.54Q232.59-10.64 232.59-13.53L232.59-13.53Q232.55-17.19 229.76-19.38L229.76-19.38Q230.2-20.95 231.42-21.24L231.42-21.24Q231.62-21.29 231.81-21.29L231.81-21.29Q232.5-21.29 233.28-20.56L233.28-20.56Q233.82-20.07 234.25-20.07L234.25-20.07Q235.48-20.36 235.67-21.63L235.67-21.63Q235.67-23.14 234.25-23.68L234.25-23.68Q233.72-23.88 233.18-23.88L233.18-23.88Q230.89-23.88 229.47-21.83L229.47-21.83Q228.93-21.04 228.64-20.12L228.64-20.12Q226.44-21.24 223.9-21.24ZM223.9 8.01L223.9 8.01Q219.07 8.01 217.8 5.47L217.8 5.47Q217.46 4.79 217.46 4.1L217.46 4.1Q217.51 2.78 218.63 1.46L218.63 1.46Q219.61 1.66 220.24 1.66L220.24 1.66 227.76 1.76Q231.42 1.81 232.01 3.42L232.01 3.42Q232.16 3.81 232.16 4.39L232.16 4.39Q232.16 6.54 228.15 7.52L228.15 7.52Q226.2 8.01 223.9 8.01ZM246.6-20.75L246.6-19.53 250.02-19.53 250.02-5.76Q250.36 0.34 255.64 0.54L255.64 0.54Q260.13 0.54 261.25-4.98L261.25-4.98Q261.25-5.03 261.25-5.08L261.25-5.08 259.93-5.32Q258.71-1.27 256.37-0.93L256.37-0.93Q253.73-1.03 253.68-4.69L253.68-4.69 253.68-19.53 261.25-19.53 261.25-20.75 253.68-20.75 253.68-26.42 250.02-25.39 250.02-20.75 246.6-20.75ZM280.59 0.49L280.59 0.49Q284.35 0.49 284.74-4.05L284.74-4.05Q284.78-4.35 284.78-4.59L284.78-4.59 283.51-4.64Q283.17-1.07 281.61-1.03L281.61-1.03Q280.34-1.12 280.29-3.56L280.29-3.56 280.29-13.87Q280.29-20.85 273.31-21.24L273.31-21.24Q272.87-21.24 272.43-21.24L272.43-21.24Q266.96-21.24 265.11-18.7L265.11-18.7Q264.52-17.87 264.52-17.04L264.52-17.04Q264.52-15.53 265.94-15.28L265.94-15.28Q266.18-15.23 266.43-15.23L266.43-15.23Q267.55-15.23 268.09-16.65L268.09-16.65Q268.77-18.46 269.01-18.8L269.01-18.8Q269.94-20.02 271.89-20.02L271.89-20.02Q276.48-19.73 276.63-14.99L276.63-14.99 276.63-11.91Q265.16-11.91 263.5-7.13L263.5-7.13Q263.2-6.2 263.2-5.13L263.2-5.13Q263.2-1.42 266.47-0.05L266.47-0.05Q267.79 0.49 269.26 0.49L269.26 0.49Q272.82 0.49 275.26-1.95L275.26-1.95Q276.14-2.88 276.58-3.91L276.58-3.91Q277.17 0.44 280.59 0.49ZM270.87-1.46L270.87-1.46Q267.89-1.46 267.21-4.44L267.21-4.44Q267.06-5.13 267.06-5.96L267.06-5.96Q267.06-9.23 270.82-10.11L270.82-10.11Q272.82-10.55 276.63-10.6L276.63-10.6 276.63-6.69Q275.9-3.32 273.07-1.95L273.07-1.95Q271.94-1.46 270.87-1.46ZM296.6-1.22L296.6-1.22 293.96-1.22 293.96-31.74 286.64-31.74 286.64-30.52 290.3-30.52 290.3-4.15Q290.3-1.9 289.03-1.46L289.03-1.46Q288.3-1.22 286.64-1.22L286.64-1.22 286.64 0 297.82 0Q297.82-1.07 297.09-1.17L297.09-1.17Q296.89-1.22 296.6-1.22ZM311.29-20.02L311.29-20.02Q314.71-20.02 315.83-17.14L315.83-17.14Q316.22-16.21 316.22-15.14L316.22-15.14Q316.22-12.7 313.88-12.16L313.88-12.16Q312.66-11.91 310.41-11.96L310.41-11.96 305.24-12.11Q305.48-17.72 308.9-19.43L308.9-19.43Q310.02-20.02 311.29-20.02ZM319.79-4.69L319.79-4.69 318.57-5.13Q316.86-1.42 313.05-0.93L313.05-0.93Q312.56-0.88 312.12-0.88L312.12-0.88Q307-0.88 305.68-6.98L305.68-6.98Q305.29-8.69 305.24-10.74L305.24-10.74 311.1-10.64Q317.05-10.55 318.76-11.77L318.76-11.77Q320.08-12.74 320.08-14.55L320.08-14.55Q320.08-17.87 316.71-19.82L316.71-19.82Q314.32-21.24 311.2-21.24L311.2-21.24Q305.09-21.24 302.46-16.16L302.46-16.16Q301.09-13.53 301.09-10.21L301.09-10.21Q301.09-4.15 305.43-1.22L305.43-1.22Q308.02 0.49 311.34 0.49L311.34 0.49Q316.62 0.49 319.11-3.32L319.11-3.32Q319.5-4 319.79-4.69ZM332.78-1.22L332.78-1.22 330.58-1.22 330.58-11.77Q330.72-16.31 333.8-18.31L333.8-18.31Q335.12-19.14 336.49-19.14L336.49-19.14Q339.46-19.14 340.54-16.36L340.54-16.36Q340.98-15.23 340.98-13.82L340.98-13.82 340.98-4.15Q340.98-1.9 339.71-1.46L339.71-1.46Q338.98-1.22 337.32-1.22L337.32-1.22 337.32 0 348.3 0Q348.3-1.07 347.57-1.17L347.57-1.17Q347.37-1.22 347.08-1.22L347.08-1.22 344.64-1.22 344.64-13.33Q344.64-18.21 341.27-20.31L341.27-20.31Q339.71-21.24 337.9-21.24L337.9-21.24Q334.29-21.24 331.94-18.36L331.94-18.36Q331.07-17.24 330.53-15.87L330.53-15.87 330.33-20.75 323.25-20.75 323.25-19.53 326.92-19.53 326.92-4.15Q326.92-1.9 325.65-1.46L325.65-1.46Q324.91-1.22 323.25-1.22L323.25-1.22 323.25 0 334 0Q334-1.07 333.26-1.17L333.26-1.17Q333.07-1.22 332.78-1.22ZM350.5-20.75L350.5-19.53 353.92-19.53 353.92-5.76Q354.26 0.34 359.53 0.54L359.53 0.54Q364.02 0.54 365.15-4.98L365.15-4.98Q365.15-5.03 365.15-5.08L365.15-5.08 363.83-5.32Q362.61-1.27 360.26-0.93L360.26-0.93Q357.63-1.03 357.58-4.69L357.58-4.69 357.58-19.53 365.15-19.53 365.15-20.75 357.58-20.75 357.58-26.42 353.92-25.39 353.92-20.75 350.5-20.75ZM375.88-20.75L375.88-19.53 379.3-19.53 379.3-5.76Q379.64 0.34 384.92 0.54L384.92 0.54Q389.41 0.54 390.53-4.98L390.53-4.98Q390.53-5.03 390.53-5.08L390.53-5.08 389.21-5.32Q387.99-1.27 385.65-0.93L385.65-0.93Q383.01-1.03 382.96-4.69L382.96-4.69 382.96-19.53 390.53-19.53 390.53-20.75 382.96-20.75 382.96-26.42 379.3-25.39 379.3-20.75 375.88-20.75ZM396.88-10.4L396.88-10.4Q396.88-17.97 401.03-19.63L401.03-19.63Q402.1-20.02 403.27-20.02L403.27-20.02Q408.69-20.02 409.57-13.18L409.57-13.18Q409.72-12.01 409.72-10.6L409.72-10.6Q409.72-2.39 405.23-0.98L405.23-0.98Q404.35-0.73 403.42-0.73L403.42-0.73Q398.49-0.73 397.22-6.59L397.22-6.59Q396.88-8.3 396.88-10.4ZM403.42-21.24L403.42-21.24Q398.73-21.24 395.61-18.02L395.61-18.02Q392.73-15.04 392.73-10.6L392.73-10.6Q392.73-4.44 397.22-1.37L397.22-1.37Q399.95 0.49 403.27 0.49L403.27 0.49Q407.96 0.49 411.04-2.83L411.04-2.83Q413.87-5.86 413.87-10.4L413.87-10.4Q413.87-16.55 409.33-19.53L409.33-19.53Q406.64-21.24 403.42-21.24ZM431.44-10.4L431.44-10.4Q431.44-17.97 435.59-19.63L435.59-19.63Q436.67-20.02 437.84-20.02L437.84-20.02Q443.26-20.02 444.14-13.18L444.14-13.18Q444.28-12.01 444.28-10.6L444.28-10.6Q444.28-2.39 439.79-0.98L439.79-0.98Q438.91-0.73 437.98-0.73L437.98-0.73Q433.05-0.73 431.78-6.59L431.78-6.59Q431.44-8.3 431.44-10.4ZM437.98-21.24L437.98-21.24Q433.3-21.24 430.17-18.02L430.17-18.02Q427.29-15.04 427.29-10.6L427.29-10.6Q427.29-4.44 431.78-1.37L431.78-1.37Q434.52 0.49 437.84 0.49L437.84 0.49Q442.53 0.49 445.6-2.83L445.6-2.83Q448.43-5.86 448.43-10.4L448.43-10.4Q448.43-16.55 443.89-19.53L443.89-19.53Q441.21-21.24 437.98-21.24ZM462.4 8.06L458.98 8.06 458.98-2.05Q461.66 0.29 465.18 0.49L465.18 0.49Q469.53 0.49 472.45-2.78L472.45-2.78Q475.29-5.96 475.29-10.84L475.29-10.84Q475.29-16.41 472.21-19.29L472.21-19.29Q470.06-21.24 466.99-21.24L466.99-21.24Q462.25-21.24 459.91-17.48L459.91-17.48Q459.32-16.5 458.93-15.43L458.93-15.43 458.69-20.75 451.65-20.75 451.65-19.53 455.32-19.53 455.32 5.13Q455.32 7.37 454.05 7.81L454.05 7.81Q453.31 8.06 451.65 8.06L451.65 8.06 451.65 9.28 463.62 9.28Q463.62 8.2 462.88 8.11L462.88 8.11Q462.69 8.06 462.4 8.06L462.4 8.06ZM465.42-19.29L465.42-19.29Q469.67-19.29 470.79-13.96L470.79-13.96Q471.14-12.35 471.14-10.35L471.14-10.35Q471.14-3.17 467.28-1.27L467.28-1.27Q466.16-0.73 464.84-0.73L464.84-0.73Q461.08-0.73 459.66-4.69L459.66-4.69Q458.93-6.69 458.93-9.42L458.93-9.42Q458.93-15.77 462.2-18.21L462.2-18.21Q463.67-19.29 465.42-19.29ZM489.25 8.06L485.83 8.06 485.83-2.05Q488.52 0.29 492.03 0.49L492.03 0.49Q496.38 0.49 499.31-2.78L499.31-2.78Q502.14-5.96 502.14-10.84L502.14-10.84Q502.14-16.41 499.06-19.29L499.06-19.29Q496.92-21.24 493.84-21.24L493.84-21.24Q489.1-21.24 486.76-17.48L486.76-17.48Q486.17-16.5 485.78-15.43L485.78-15.43 485.54-20.75 478.51-20.75 478.51-19.53 482.17-19.53 482.17 5.13Q482.17 7.37 480.9 7.81L480.9 7.81Q480.17 8.06 478.51 8.06L478.51 8.06 478.51 9.28 490.47 9.28Q490.47 8.2 489.74 8.11L489.74 8.11Q489.54 8.06 489.25 8.06L489.25 8.06ZM492.28-19.29L492.28-19.29Q496.52-19.29 497.65-13.96L497.65-13.96Q497.99-12.35 497.99-10.35L497.99-10.35Q497.99-3.17 494.13-1.27L494.13-1.27Q493.01-0.73 491.69-0.73L491.69-0.73Q487.93-0.73 486.51-4.69L486.51-4.69Q485.78-6.69 485.78-9.42L485.78-9.42Q485.78-15.77 489.05-18.21L489.05-18.21Q490.52-19.29 492.28-19.29ZM510.19-10.4L510.19-10.4Q510.19-17.97 514.34-19.63L514.34-19.63Q515.42-20.02 516.59-20.02L516.59-20.02Q522.01-20.02 522.89-13.18L522.89-13.18Q523.04-12.01 523.04-10.6L523.04-10.6Q523.04-2.39 518.54-0.98L518.54-0.98Q517.66-0.73 516.74-0.73L516.74-0.73Q511.81-0.73 510.54-6.59L510.54-6.59Q510.19-8.3 510.19-10.4ZM516.74-21.24L516.74-21.24Q512.05-21.24 508.92-18.02L508.92-18.02Q506.04-15.04 506.04-10.6L506.04-10.6Q506.04-4.44 510.54-1.37L510.54-1.37Q513.27 0.49 516.59 0.49L516.59 0.49Q521.28 0.49 524.35-2.83L524.35-2.83Q527.19-5.86 527.19-10.4L527.19-10.4Q527.19-16.55 522.65-19.53L522.65-19.53Q519.96-21.24 516.74-21.24ZM541.54-1.22L541.54-1.22 538.02-1.22 538.02-10.94Q538.02-15.38 540.76-18.07L540.76-18.07Q541.83-19.09 542.56-19.14L542.56-19.14Q543.39-19.14 544.08-17.92L544.08-17.92Q544.86-16.55 545.54-16.36L545.54-16.36Q545.84-16.26 546.13-16.26L546.13-16.26Q547.59-16.26 547.98-17.68L547.98-17.68Q548.08-17.97 548.08-18.26L548.08-18.26Q548.08-20.46 545.84-20.95L545.84-20.95Q545.35-21.04 544.91-21.04L544.91-21.04Q541.98-21.04 539.68-18.55L539.68-18.55Q538.61-17.38 537.97-15.92L537.97-15.92 537.78-20.75 530.7-20.75 530.7-19.53 534.36-19.53 534.36-4.15Q534.36-1.9 533.09-1.46L533.09-1.46Q532.36-1.22 530.7-1.22L530.7-1.22 530.7 0 542.76 0Q542.76-1.07 542.03-1.17L542.03-1.17Q541.83-1.22 541.54-1.22ZM549.3-20.75L549.3-19.53 552.72-19.53 552.72-5.76Q553.06 0.34 558.33 0.54L558.33 0.54Q562.83 0.54 563.95-4.98L563.95-4.98Q563.95-5.03 563.95-5.08L563.95-5.08 562.63-5.32Q561.41-1.27 559.07-0.93L559.07-0.93Q556.43-1.03 556.38-4.69L556.38-4.69 556.38-19.53 563.95-19.53 563.95-20.75 556.38-20.75 556.38-26.42 552.72-25.39 552.72-20.75 549.3-20.75ZM589.34-1.22L589.34-1.22 586.9-1.22 586.9-20.75 579.23-20.75 579.23-19.53 583.23-19.53 583.23-8.98Q583.23-4.59 580.16-2.54L580.16-2.54Q578.79-1.61 577.33-1.61L577.33-1.61Q573.32-1.61 572.69-5.71L572.69-5.71Q572.59-6.4 572.59-7.18L572.59-7.18 572.59-20.75 565.17-20.75 565.17-19.53 568.93-19.53 568.93-7.91Q568.98 0.44 575.91 0.49L575.91 0.49Q579.57 0.49 581.91-2.49L581.91-2.49Q582.79-3.61 583.33-4.98L583.33-4.98 583.67 0 590.56 0Q590.56-1.07 589.83-1.17L589.83-1.17Q589.63-1.22 589.34-1.22ZM602.86-1.22L602.86-1.22 600.66-1.22 600.66-11.77Q600.81-16.31 603.89-18.31L603.89-18.31Q605.2-19.14 606.57-19.14L606.57-19.14Q609.55-19.14 610.62-16.36L610.62-16.36Q611.06-15.23 611.06-13.82L611.06-13.82 611.06-4.15Q611.06-1.9 609.79-1.46L609.79-1.46Q609.06-1.22 607.4-1.22L607.4-1.22 607.4 0 618.39 0Q618.39-1.07 617.65-1.17L617.65-1.17Q617.46-1.22 617.17-1.22L617.17-1.22 614.72-1.22 614.72-13.33Q614.72-18.21 611.36-20.31L611.36-20.31Q609.79-21.24 607.99-21.24L607.99-21.24Q604.37-21.24 602.03-18.36L602.03-18.36Q601.15-17.24 600.61-15.87L600.61-15.87 600.42-20.75 593.34-20.75 593.34-19.53 597-19.53 597-4.15Q597-1.9 595.73-1.46L595.73-1.46Q595-1.22 593.34-1.22L593.34-1.22 593.34 0 604.08 0Q604.08-1.07 603.35-1.17L603.35-1.17Q603.15-1.22 602.86-1.22ZM631.08-1.22L631.08-1.22 628.64-1.22 628.64-20.75 621.07-20.75 621.07-19.53 624.98-19.53 624.98-4.15Q624.98-1.9 623.46-1.42L623.46-1.42Q622.73-1.22 621.07-1.22L621.07-1.22 621.07 0 632.3 0Q632.3-1.07 631.57-1.17L631.57-1.17Q631.32-1.22 631.08-1.22ZM629.22-27.88L629.22-27.88Q629.22-29.59 627.71-30.32L627.71-30.32Q627.12-30.57 626.59-30.57L626.59-30.57Q624.88-30.57 624.15-29L624.15-29Q623.9-28.47 623.9-27.88L623.9-27.88Q623.9-26.07 625.51-25.39L625.51-25.39Q626.05-25.2 626.59-25.2L626.59-25.2Q628.3-25.2 628.98-26.76L628.98-26.76Q629.22-27.29 629.22-27.88ZM634.74-20.75L634.74-19.53 638.16-19.53 638.16-5.76Q638.5 0.34 643.77 0.54L643.77 0.54Q648.26 0.54 649.39-4.98L649.39-4.98Q649.39-5.03 649.39-5.08L649.39-5.08 648.07-5.32Q646.85-1.27 644.51-0.93L644.51-0.93Q641.87-1.03 641.82-4.69L641.82-4.69 641.82-19.53 649.39-19.53 649.39-20.75 641.82-20.75 641.82-26.42 638.16-25.39 638.16-20.75 634.74-20.75ZM654.66 7.76L654.66 7.76Q653.88 7.76 653.49 6.59L653.49 6.59Q652.95 5.13 652.46 4.79L652.46 4.79Q652.02 4.49 651.44 4.49L651.44 4.49Q649.87 4.49 649.63 5.86L649.63 5.86Q649.58 6.05 649.58 6.2L649.58 6.2Q649.58 8.06 651.73 8.89L651.73 8.89Q652.71 9.28 653.78 9.28L653.78 9.28Q657.64 9.28 660.47 4.54L660.47 4.54Q661.64 2.64 662.72 0L662.72 0 669.94-17.82Q670.43-19.19 671.02-19.38L671.02-19.38Q671.36-19.48 671.8-19.48L671.8-19.48Q672.77-19.48 672.92-20.02L672.92-20.02Q673.02-20.31 673.02-20.75L673.02-20.75 665.6-20.75 665.6-19.48 669.16-19.48 662.91-3.86 656.22-19.48 659.49-19.48 659.49-20.75 649.97-20.75 649.97-19.48 652.36-19.48 661.15 0Q658.42 6.45 656.03 7.47L656.03 7.47Q655.34 7.76 654.66 7.76Z" opacity="1" transform="matrix(1,0,0,1,0,0)" fill="white" class="slogan-text-1" id="SvgjsPath7192"></path></svg></g></svg></g></svg></g></svg></g><g transform="matrix(1,0,0,1,56.93327484457256,0)"><svg viewBox="0 0 99.29189153801202 99.29945503041162" height="99.29945503041162" width="99.29189153801202"><g><svg xmlns="http://www.w3.org/2000/svg" xmlns:xlink="http://www.w3.org/1999/xlink" version="1.1" x="0" y="0" viewBox="4.357976870074491 4.355 91.28404649975732 91.291" enable-background="new 0 0 100 100" xml:space="preserve" height="99.29945503041162" width="99.29189153801202" class="icon-icon-0" data-fill-palette-color="quaternary" id="SvgjsSvg7191"><path d="M87.016 76.67A45.4 45.4 0 0 0 95.642 50 45.4 45.4 0 0 0 87.016 23.332 0.9 0.9 0 0 0 86.799 23.035 46 46 0 0 0 76.967 13.202 1 1 0 0 0 76.66 12.978 45.4 45.4 0 0 0 51.765 4.396L51.537 4.388C51.183 4.376 50.825 4.368 50.468 4.365 50.317 4.363 50.166 4.355 50.014 4.355H50.009L50.006 4.356 50.002 4.355H49.99L49.986 4.356 49.983 4.355C49.819 4.355 49.656 4.363 49.493 4.366A40 40 0 0 0 48.116 4.402 45.37 45.37 0 0 0 23.344 12.976 0.9 0.9 0 0 0 23.03 13.205 46 46 0 0 0 13.202 23.034 0.9 0.9 0 0 0 12.982 23.335 45.4 45.4 0 0 0 4.358 50 45.4 45.4 0 0 0 12.982 76.667 1 1 0 0 0 13.203 76.97 46 46 0 0 0 23.03 86.796 0.9 0.9 0 0 0 23.344 87.026 45.4 45.4 0 0 0 48.116 95.6L48.514 95.616C48.839 95.628 49.166 95.634 49.493 95.636 49.657 95.64 49.82 95.646 49.983 95.646H50.015C50.167 95.646 50.317 95.64 50.469 95.638A54 54 0 0 0 51.765 95.607 45.4 45.4 0 0 0 76.661 87.025 1 1 0 0 0 76.968 86.8 46 46 0 0 0 86.8 76.968 1 1 0 0 0 87.016 76.67M8.191 37.14H8.509A48 48 0 0 0 6.768 49.05H6.272A43.6 43.6 0 0 1 8.191 37.14M91.174 35.238H89.908A47 47 0 0 0 85.099 24.68H85.647A43.7 43.7 0 0 1 91.174 35.238M91.81 62.859H90.469A49 49 0 0 0 92.166 50.951H93.728A43.5 43.5 0 0 1 91.81 62.859M78.255 62.859A69.3 69.3 0 0 0 79.436 50.951H90.266A47 47 0 0 1 88.495 62.859zM88.494 37.14A47 47 0 0 1 90.265 49.05H79.435A69 69 0 0 0 78.254 37.14zM77.533 49.049H60.176A207 207 0 0 0 59.788 37.139H76.317A67 67 0 0 1 77.533 49.049M56.646 24.681C57.113 27.945 57.488 31.488 57.76 35.239H39.492C39.85 31.487 40.344 27.945 40.96 24.681zM41.34 22.779C41.974 19.772 42.708 17.095 43.528 14.793H54.7C55.321 17.098 55.877 19.776 56.358 22.779zM50 6.26L50.035 6.261C50.264 6.269 50.511 6.365 50.765 6.542H48.833A2.7 2.7 0 0 1 49.936 6.261zM52.312 8.444C52.954 9.565 53.569 11.055 54.147 12.891H44.262C45.033 11.045 45.854 9.556 46.71 8.444zM56.135 12.891C55.612 11.148 55.051 9.66 54.458 8.444H58.564C60.665 9.543 62.668 11.034 64.543 12.891zM44.395 8.444C43.624 9.664 42.893 11.152 42.209 12.891H34.256C36.282 11.035 38.449 9.543 40.723 8.444zM41.513 14.792C40.72 17.127 40.012 19.806 39.398 22.778H26.693C28.33 19.76 30.229 17.084 32.348 14.792zM39.024 24.681C38.418 27.956 37.934 31.498 37.581 35.239H21.964C22.883 31.482 24.146 27.94 25.725 24.681zM37.42 37.14A160 160 0 0 0 36.912 49.05H20.219C20.279 45.006 20.719 41.009 21.533 37.14zM36.912 50.951C36.936 54.994 37.106 58.988 37.42 62.859H21.533A62.5 62.5 0 0 1 20.219 50.951zM37.582 64.762C37.935 68.502 38.418 72.047 39.025 75.321H25.725C24.146 72.061 22.884 68.518 21.964 64.762zM39.397 77.223C40.011 80.196 40.719 82.873 41.512 85.209H32.348C30.229 82.916 28.33 80.24 26.693 77.223zM42.209 87.109C42.893 88.847 43.624 90.336 44.395 91.556H40.724C38.45 90.458 36.284 88.964 34.257 87.109zM46.709 91.557C45.853 90.446 45.033 88.955 44.26 87.11H54.146C53.568 88.946 52.953 90.436 52.311 91.557zM49.937 93.738A2.7 2.7 0 0 1 48.834 93.457H50.766C50.511 93.635 50.265 93.732 50.036 93.74H50.001zM54.458 91.557C55.051 90.342 55.611 88.854 56.135 87.11H64.543C62.669 88.965 60.665 90.46 58.564 91.557zM43.528 85.209C42.708 82.906 41.974 80.23 41.34 77.223H56.359C55.878 80.225 55.322 82.903 54.701 85.209zM40.96 75.32C40.344 72.056 39.851 68.513 39.492 64.761H57.76A153 153 0 0 1 56.646 75.32zM39.328 62.859A157 157 0 0 1 38.814 50.951H58.274A205 205 0 0 1 57.884 62.859zM38.813 49.049C38.837 45.004 39.009 41.009 39.327 37.139H57.883A206 206 0 0 1 58.273 49.049zM59.666 35.238C59.396 31.496 59.028 27.953 58.565 24.68H72.436C73.898 27.938 75.068 31.481 75.917 35.238zM58.282 22.779C57.814 19.804 57.273 17.125 56.669 14.793H66.308C68.268 17.086 70.026 19.761 71.54 22.779zM67.169 12.891C65.607 11.157 63.946 9.67 62.201 8.444H62.568A39 39 0 0 1 71.316 12.891zM31.531 12.891H28.118A40.3 40.3 0 0 1 36.582 8.632C34.812 9.82 33.124 11.248 31.531 12.891M29.815 14.792C27.842 17.137 26.077 19.812 24.549 22.778H17.635A42.4 42.4 0 0 1 25.468 14.792zM23.616 24.681C22.1 27.96 20.893 31.503 20.009 35.239H11.084A44.6 44.6 0 0 1 16.291 24.681zM19.59 37.14A64.5 64.5 0 0 0 18.317 49.05H8.669A46 46 0 0 1 10.487 37.14zM18.317 50.951A64.4 64.4 0 0 0 19.59 62.859H10.487A46 46 0 0 1 8.669 50.951zM20.009 64.762C20.894 68.498 22.101 72.041 23.616 75.321H16.29A44.7 44.7 0 0 1 11.083 64.762zM24.55 77.223C26.078 80.188 27.843 82.864 29.816 85.209H25.47A42.5 42.5 0 0 1 17.637 77.223zM31.531 87.109C33.124 88.754 34.812 90.179 36.582 91.367A40.2 40.2 0 0 1 28.118 87.109zM62.201 91.557C63.946 90.33 65.607 88.844 67.169 87.11H71.316A38.8 38.8 0 0 1 62.568 91.557zM56.669 85.209C57.273 82.877 57.815 80.197 58.282 77.223H71.54C70.025 80.241 68.269 82.916 66.308 85.209zM58.565 75.32C59.028 72.047 59.396 68.504 59.666 64.761H75.918C75.067 68.517 73.898 72.06 72.437 75.32zM59.788 62.859C60.027 58.988 60.159 54.994 60.176 50.951H77.533A67 67 0 0 1 76.317 62.859zM92.166 49.049A49 49 0 0 0 90.469 37.139H91.81A43.6 43.6 0 0 1 93.729 49.049zM87.913 35.238H77.866C77.045 31.502 75.924 27.959 74.517 24.68H82.838A45 45 0 0 1 87.913 35.238M73.651 22.779C72.233 19.812 70.593 17.136 68.761 14.793H73.895A42 42 0 0 1 81.528 22.779zM9.082 35.238H8.827A43 43 0 0 1 11.281 29.674 47 47 0 0 0 9.082 35.238M6.768 50.951A48 48 0 0 0 8.509 62.859H8.191A43.5 43.5 0 0 1 6.273 50.951zM9.082 64.762A47 47 0 0 0 11.28 70.328 44 44 0 0 1 8.826 64.762zM73.896 85.209H68.762C70.594 82.863 72.234 80.188 73.652 77.223H81.529A42 42 0 0 1 73.896 85.209M74.518 75.32C75.923 72.041 77.045 68.498 77.867 64.761H87.914A45 45 0 0 1 82.84 75.32zM89.908 64.762H91.174A43.7 43.7 0 0 1 85.648 75.321H85.1A47.2 47.2 0 0 0 89.908 64.762M84.21 22.779H83.855A46 46 0 0 0 81.686 19.877 44 44 0 0 1 84.21 22.779M81.686 80.123A47 47 0 0 0 83.855 77.223H84.21A45 45 0 0 1 81.686 80.123" fill="white"></path></svg></g></svg></g><g></g></svg></g></svg></g></svg></g></svg></g><defs><mask></mask></defs></svg><rect width="342.85155851775386" height="342.85155851775386" fill="black" stroke="none" visibility="hidden"></rect></g></mask><linearGradient x1="0.054" x2="0.941" y1="0.5" y2="0.5" id="608b4532-b11b-4832-ae1d-d440d1b85262"><stop stop-color="#9c7945" offset="0"></stop><stop stop-color="#faf3aa" offset="0.498"></stop><stop stop-color="#9c7945" offset="1"></stop></linearGradient><rect width="342.852" height="342.852" fill="#ffffff" mask="url(#69a0435e-f930-4d9c-9a2a-0fac42b4fd95)" data-fill-palette-color="quaternary"></rect></svg><rect width="342.85155851775386" height="342.85155851775386" fill="none" stroke="none" visibility="hidden"></rect></g></svg></g></svg>